<svg xmlns="http://www.w3.org/2000/svg" viewBox="0 0 1024 1024">
  <circle cx="512" cy="512" r="420" fill="#F5A500"/>
  <path fill="#F5A500" d="M 525.500 208.582 C 523.300 208.798, 516.550 209.465, 510.500 210.066 C 497.866 211.320, 472.069 216.146, 462.213 219.100 C 458.521 220.206, 452.350 222.055, 448.500 223.209 C 315.227 263.135, 219.657 394.570, 224.331 531.500 C 225.350 561.335, 231.624 601, 235.325 601 C 235.880 601, 236.062 600.729, 235.730 600.397 C 235.399 600.066, 236.336 598.659, 237.814 597.272 C 239.291 595.885, 239.621 595.369, 238.547 596.125 C 236.609 597.489, 236.609 597.479, 238.547 594.853 C 239.621 593.397, 240.777 592.374, 241.116 592.579 C 241.455 592.785, 242.580 591.986, 243.616 590.805 C 244.854 589.393, 244.986 588.934, 244 589.465 C 243.175 589.910, 245.765 587.249, 249.756 583.551 C 253.746 579.853, 256.789 576.467, 256.517 576.027 C 256.245 575.587, 256.692 574.671, 257.511 573.991 C 258.330 573.311, 259.015 573.148, 259.034 573.628 C 259.053 574.107, 262.239 571.125, 266.114 567 C 269.989 562.875, 272.869 560.175, 272.514 561 C 272.159 561.825, 274.237 560.025, 277.130 557 C 280.024 553.975, 281.802 552.400, 281.081 553.500 C 280.360 554.600, 281.441 553.700, 283.485 551.500 C 285.528 549.300, 286.897 548.175, 286.528 549 C 286.158 549.825, 287.062 549.150, 288.537 547.500 C 290.013 545.850, 290.896 545.175, 290.500 546 C 290.104 546.825, 290.987 546.150, 292.463 544.500 C 293.938 542.850, 294.854 542.175, 294.498 543 C 294.143 543.825, 294.592 543.600, 295.496 542.500 C 296.401 541.400, 297.572 540.617, 298.098 540.759 C 298.625 540.902, 299.315 540.342, 299.633 539.515 C 299.950 538.688, 300.556 538.225, 300.979 538.487 C 301.402 538.749, 302.902 537.893, 304.312 536.586 C 305.723 535.279, 307.119 534.452, 307.415 534.748 C 307.711 535.044, 308.236 534.549, 308.581 533.649 C 308.927 532.748, 309.616 532.262, 310.112 532.569 C 310.608 532.876, 311.283 532.426, 311.612 531.569 C 311.941 530.712, 312.612 530.260, 313.105 530.565 C 313.597 530.869, 314 530.615, 314 530 C 314 529.385, 314.382 529.118, 314.849 529.406 C 315.315 529.695, 316.767 528.934, 318.075 527.715 C 319.383 526.497, 320.464 525.679, 320.477 525.897 C 320.527 526.751, 325 524.809, 325 523.933 C 325 523.420, 325.337 523.053, 325.750 523.118 C 327.863 523.452, 329.042 522.878, 328.395 521.830 C 327.909 521.043, 328.217 520.869, 329.336 521.299 C 330.251 521.650, 331 521.475, 331 520.910 C 331 520.344, 331.450 520.160, 332 520.500 C 332.550 520.840, 333 520.615, 333 520 C 333 519.385, 333.450 519.160, 334 519.500 C 334.550 519.840, 335 519.615, 335 519 C 335 518.385, 335.450 518.160, 336 518.500 C 336.550 518.840, 337 518.593, 337 517.952 C 337 517.311, 337.675 517.045, 338.500 517.362 C 339.325 517.678, 340 517.475, 340 516.910 C 340 516.344, 340.450 516.160, 341 516.500 C 341.550 516.840, 342 516.593, 342 515.952 C 342 515.311, 342.675 515.045, 343.500 515.362 C 344.325 515.678, 345 515.515, 345 515 C 345 514.485, 345.675 514.322, 346.500 514.638 C 347.325 514.955, 348 514.689, 348 514.048 C 348 513.407, 348.450 513.160, 349 513.500 C 349.550 513.840, 350 513.611, 350 512.992 C 350 512.320, 350.808 512.122, 352 512.500 C 353.121 512.856, 354 512.680, 354 512.099 C 354 511.529, 354.675 511.322, 355.500 511.638 C 356.325 511.955, 357 511.686, 357 511.040 C 357 510.320, 357.775 510.111, 359 510.500 C 360.226 510.889, 361 510.680, 361 509.959 C 361 509.204, 361.895 509.008, 363.500 509.411 C 364.875 509.756, 366 509.608, 366 509.082 C 366 508.540, 367.583 508.383, 369.655 508.719 C 372.087 509.114, 373.094 508.960, 372.661 508.261 C 372.222 507.550, 375.569 507.220, 383.006 507.240 C 389.472 507.257, 394 507.672, 394 508.246 C 394 508.820, 395.441 508.952, 397.500 508.566 C 399.857 508.124, 401 508.286, 401 509.063 C 401 509.794, 401.915 509.987, 403.500 509.589 C 405.018 509.208, 406 509.389, 406 510.048 C 406 510.680, 406.838 510.869, 408 510.500 C 409.121 510.144, 410 510.320, 410 510.901 C 410 511.471, 410.675 511.678, 411.500 511.362 C 412.326 511.045, 413 511.332, 413 512 C 413 512.668, 413.674 512.955, 414.500 512.638 C 415.325 512.322, 416 512.485, 416 513 C 416 513.515, 416.675 513.678, 417.500 513.362 C 418.325 513.045, 419 513.270, 419 513.862 C 419 514.454, 419.748 514.650, 420.664 514.299 C 421.775 513.872, 422.090 514.045, 421.612 514.819 C 421.144 515.575, 421.434 515.771, 422.448 515.382 C 423.304 515.053, 424 515.309, 424 515.952 C 424 516.593, 424.450 516.840, 425 516.500 C 425.550 516.160, 426 516.385, 426 517 C 426 517.615, 426.450 517.840, 427 517.500 C 427.550 517.160, 428 517.385, 428 518 C 428 518.615, 428.434 518.850, 428.964 518.523 C 429.493 518.195, 430.843 518.843, 431.964 519.964 C 433.084 521.084, 434.014 521.663, 434.032 521.250 C 434.049 520.837, 434.724 521.374, 435.532 522.441 C 436.339 523.509, 437.010 523.959, 437.022 523.441 C 437.034 522.924, 437.974 523.625, 439.109 525 C 440.245 526.375, 440.877 526.825, 440.514 526 C 440.152 525.175, 441.062 525.850, 442.537 527.500 C 444.013 529.150, 444.914 529.825, 444.541 529 C 444.168 528.175, 445.272 529.075, 446.995 531 C 448.717 532.925, 450.581 534.376, 451.138 534.225 C 451.694 534.074, 451.912 534.334, 451.622 534.802 C 450.891 535.985, 463.429 548.238, 464.389 547.278 C 464.817 546.850, 465.032 546.950, 464.867 547.500 C 464.702 548.050, 468.564 552.515, 473.449 557.423 C 478.334 562.330, 481.993 565.705, 481.579 564.923 C 481.165 564.140, 481.805 564.625, 483 566 C 484.195 567.375, 484.875 567.825, 484.511 567 C 484.146 566.175, 484.726 566.493, 485.800 567.707 C 486.873 568.922, 488.033 569.634, 488.376 569.291 C 488.719 568.948, 489 569.218, 489 569.892 C 489 570.566, 489.450 570.840, 490 570.500 C 490.550 570.160, 491 570.385, 491 571 C 491 571.615, 491.450 571.840, 492 571.500 C 492.550 571.160, 493 571.389, 493 572.008 C 493 572.702, 493.817 572.876, 495.125 572.460 C 496.540 572.011, 497.025 572.151, 496.576 572.878 C 496.116 573.621, 496.874 573.775, 498.950 573.360 C 500.904 572.969, 502 573.154, 502 573.875 C 502 574.494, 502.675 575, 503.500 575 C 504.325 575, 505 574.498, 505 573.883 C 505 573.232, 506.041 572.966, 507.500 573.245 C 508.875 573.508, 510 573.349, 510 572.893 C 510 572.436, 510.675 572.322, 511.500 572.638 C 512.325 572.955, 513 572.689, 513 572.048 C 513 571.407, 513.450 571.160, 514 571.500 C 514.550 571.840, 515 571.615, 515 571 C 515 570.385, 515.422 570.143, 515.939 570.462 C 516.455 570.781, 517.341 570.245, 517.908 569.271 C 518.475 568.297, 518.953 567.845, 518.970 568.266 C 518.986 568.687, 520.409 567.562, 522.130 565.766 C 523.852 563.970, 524.659 563.400, 523.924 564.500 C 523.189 565.600, 524.255 564.949, 526.294 563.054 C 530.162 559.457, 530.860 558.450, 528.750 559.509 C 528.063 559.855, 529.075 558.742, 531 557.037 C 532.925 555.332, 534.500 553.520, 534.500 553.012 C 534.500 552.503, 535.400 551.358, 536.500 550.469 C 537.600 549.579, 537.825 549.149, 537 549.513 C 536.175 549.876, 536.625 549.195, 538 548 C 539.375 546.805, 539.825 546.124, 539 546.487 C 538.008 546.924, 538.088 546.666, 539.234 545.725 C 540.188 544.943, 540.686 544.020, 540.341 543.675 C 539.996 543.329, 540.451 542.764, 541.351 542.419 C 542.252 542.073, 542.740 541.388, 542.435 540.895 C 542.131 540.403, 542.385 540, 543 540 C 543.615 540, 543.850 539.566, 543.523 539.036 C 543.195 538.507, 543.806 537.194, 544.880 536.120 C 545.954 535.046, 546.571 533.904, 546.250 533.583 C 545.929 533.263, 546.218 533, 546.892 533 C 547.566 533, 547.840 532.550, 547.500 532 C 547.160 531.450, 547.385 531, 548 531 C 548.615 531, 548.840 530.550, 548.500 530 C 548.160 529.450, 548.385 529, 549 529 C 549.615 529, 549.840 528.550, 549.500 528 C 549.160 527.450, 549.385 527, 550 527 C 550.615 527, 550.862 526.586, 550.550 526.081 C 550.237 525.575, 550.639 524.504, 551.443 523.700 C 552.247 522.896, 552.626 521.960, 552.286 521.619 C 551.945 521.279, 552.218 521, 552.892 521 C 553.566 521, 553.840 520.550, 553.500 520 C 553.160 519.450, 553.385 519, 554 519 C 554.615 519, 554.840 518.550, 554.500 518 C 554.160 517.450, 554.385 517, 555 517 C 555.615 517, 555.840 516.550, 555.500 516 C 555.160 515.450, 555.385 515, 556 515 C 556.615 515, 556.840 514.550, 556.500 514 C 556.160 513.450, 556.385 513, 557 513 C 557.615 513, 557.840 512.550, 557.500 512 C 557.160 511.450, 557.385 511, 558 511 C 558.615 511, 558.840 510.550, 558.500 510 C 558.160 509.450, 558.385 509, 559 509 C 559.615 509, 559.840 508.550, 559.500 508 C 559.160 507.450, 559.344 507, 559.910 507 C 560.475 507, 560.680 506.329, 560.365 505.508 C 560.039 504.658, 560.479 503.753, 561.391 503.404 C 562.269 503.066, 562.740 502.388, 562.435 501.895 C 562.131 501.403, 562.385 501, 563 501 C 563.615 501, 563.840 500.550, 563.500 500 C 563.160 499.450, 563.385 499, 564 499 C 564.615 499, 564.840 498.550, 564.500 498 C 564.160 497.450, 564.385 497, 565 497 C 565.615 497, 565.840 496.550, 565.500 496 C 565.160 495.450, 565.385 495, 566 495 C 566.615 495, 566.840 494.550, 566.500 494 C 566.160 493.450, 566.385 493, 567 493 C 567.615 493, 567.840 492.550, 567.500 492 C 567.160 491.450, 567.385 491, 568 491 C 568.615 491, 568.840 490.550, 568.500 490 C 568.160 489.450, 568.385 489, 569 489 C 569.615 489, 569.840 488.550, 569.500 488 C 569.160 487.450, 569.385 487, 570 487 C 570.615 487, 570.840 486.550, 570.500 486 C 570.160 485.450, 570.359 485, 570.941 485 C 571.523 485, 571.947 484.663, 571.882 484.250 C 571.568 482.265, 572.099 480.943, 572.989 481.493 C 573.544 481.836, 573.729 481.458, 573.411 480.629 C 573.100 479.818, 573.743 478.257, 574.839 477.161 C 575.936 476.064, 576.571 474.904, 576.250 474.583 C 575.929 474.262, 576.218 474, 576.892 474 C 577.566 474, 577.840 473.550, 577.500 473 C 577.160 472.450, 577.385 472, 578 472 C 578.615 472, 578.840 471.550, 578.500 471 C 578.160 470.450, 578.359 470, 578.941 470 C 579.523 470, 579.947 469.663, 579.882 469.250 C 579.568 467.265, 580.099 465.943, 580.989 466.493 C 581.554 466.843, 581.724 466.444, 581.385 465.560 C 581.036 464.652, 581.450 463.764, 582.391 463.404 C 583.269 463.066, 583.740 462.388, 583.435 461.895 C 583.131 461.403, 583.385 461, 584 461 C 584.615 461, 584.850 460.566, 584.523 460.036 C 584.195 459.507, 584.806 458.194, 585.880 457.120 C 586.954 456.046, 587.571 454.904, 587.250 454.583 C 586.929 454.262, 587.192 454, 587.833 454 C 588.475 454, 588.947 453.663, 588.882 453.250 C 588.551 451.153, 589.124 449.958, 590.155 450.595 C 590.918 451.067, 591.035 450.866, 590.502 450.003 C 589.993 449.180, 590.377 448.197, 591.538 447.348 C 592.553 446.607, 592.985 446, 592.500 446 C 592.015 446, 592.491 445.292, 593.559 444.426 C 594.626 443.560, 594.825 443.143, 594 443.500 C 592.999 443.933, 593.077 443.675, 594.234 442.725 C 595.188 441.943, 595.676 441.009, 595.318 440.651 C 594.960 440.293, 595.218 440, 595.892 440 C 596.566 440, 596.850 439.566, 596.523 439.036 C 596.195 438.507, 596.843 437.157, 597.964 436.036 C 599.084 434.916, 599.689 434, 599.309 434 C 598.929 434, 599.491 433.292, 600.559 432.426 C 601.626 431.560, 601.825 431.143, 601 431.500 C 599.999 431.933, 600.077 431.675, 601.234 430.725 C 602.188 429.943, 602.676 429.009, 602.318 428.651 C 601.960 428.293, 602.267 428, 603 428 C 603.733 428, 604.040 427.707, 603.682 427.349 C 603.324 426.991, 603.812 426.057, 604.766 425.275 C 605.923 424.325, 606.001 424.067, 605 424.500 C 603.816 425.012, 603.837 424.869, 605.099 423.824 C 606.707 422.493, 607 421.894, 607 419.941 C 607 419.359, 607.445 419.157, 607.989 419.493 C 608.554 419.843, 608.724 419.444, 608.385 418.560 C 608.036 417.652, 608.450 416.764, 609.391 416.404 C 610.269 416.066, 610.738 415.384, 610.431 414.888 C 610.124 414.392, 610.574 413.717, 611.431 413.388 C 612.288 413.059, 612.740 412.388, 612.435 411.895 C 612.131 411.403, 612.385 411, 613 411 C 613.615 411, 613.838 410.547, 613.496 409.993 C 613.153 409.439, 613.574 408.717, 614.431 408.388 C 615.288 408.059, 615.740 407.388, 615.435 406.895 C 615.131 406.403, 615.385 406, 616 406 C 616.615 406, 616.850 405.566, 616.523 405.036 C 616.195 404.507, 616.843 403.157, 617.964 402.036 C 619.084 400.916, 619.689 400, 619.309 400 C 618.929 400, 619.491 399.292, 620.559 398.426 C 621.626 397.560, 621.825 397.143, 621 397.500 C 620.175 397.857, 620.374 397.440, 621.441 396.574 C 622.509 395.708, 622.959 394.986, 622.441 394.970 C 621.924 394.953, 622.269 394.491, 623.208 393.943 C 624.148 393.395, 624.664 392.288, 624.355 391.482 C 624.040 390.661, 624.495 389.747, 625.391 389.404 C 626.269 389.066, 626.738 388.384, 626.431 387.888 C 626.124 387.392, 626.574 386.717, 627.431 386.388 C 628.288 386.059, 628.740 385.388, 628.435 384.895 C 628.131 384.403, 628.385 384, 629 384 C 629.615 384, 629.850 383.566, 629.523 383.036 C 629.195 382.507, 629.806 381.194, 630.880 380.120 C 631.954 379.046, 632.571 377.904, 632.250 377.583 C 631.929 377.263, 632.218 377, 632.892 377 C 633.566 377, 633.838 376.547, 633.496 375.993 C 633.153 375.439, 633.574 374.717, 634.431 374.388 C 635.288 374.059, 635.740 373.388, 635.435 372.895 C 635.131 372.403, 635.385 372, 636 372 C 636.615 372, 636.840 371.550, 636.500 371 C 636.160 370.450, 636.385 370, 637 370 C 637.615 370, 637.840 369.550, 637.500 369 C 637.160 368.450, 637.385 368, 638 368 C 638.615 368, 638.850 367.566, 638.523 367.036 C 638.195 366.507, 638.806 365.194, 639.880 364.120 C 640.954 363.046, 641.571 361.904, 641.250 361.583 C 640.929 361.263, 641.218 361, 641.892 361 C 642.566 361, 642.850 360.566, 642.523 360.036 C 642.195 359.507, 642.806 358.194, 643.880 357.120 C 644.954 356.046, 645.571 354.904, 645.250 354.583 C 644.929 354.262, 645.267 354, 646 354 C 646.733 354, 647.051 353.718, 646.707 353.373 C 645.858 352.525, 648.787 347, 650.085 347 C 650.653 347, 650.840 346.550, 650.500 346 C 650.160 345.450, 650.385 345, 651 345 C 651.615 345, 651.840 344.550, 651.500 344 C 651.160 343.450, 651.434 343, 652.108 343 C 652.782 343, 653.040 342.707, 652.682 342.349 C 652.324 341.991, 652.812 341.057, 653.766 340.275 C 654.853 339.383, 654.940 339.121, 654 339.573 C 653.175 339.970, 653.522 339.301, 654.772 338.087 C 656.022 336.874, 656.783 335.458, 656.463 334.940 C 656.144 334.423, 656.434 334, 657.108 334 C 657.782 334, 658.040 333.707, 657.682 333.349 C 657.324 332.991, 657.812 332.057, 658.766 331.275 C 659.719 330.492, 659.893 330.164, 659.150 330.547 C 658.062 331.106, 658.021 330.830, 658.935 329.121 C 659.560 327.954, 660.531 327, 661.094 327 C 661.657 327, 661.840 326.550, 661.500 326 C 661.160 325.450, 661.385 325, 662 325 C 662.615 325, 662.840 324.550, 662.500 324 C 662.160 323.450, 662.385 323, 663 323 C 663.615 323, 663.840 322.550, 663.500 322 C 663.160 321.450, 663.359 321, 663.941 321 C 664.523 321, 664.947 320.663, 664.882 320.250 C 664.568 318.265, 665.099 316.943, 665.989 317.493 C 666.554 317.843, 666.724 317.444, 666.385 316.560 C 666.036 315.652, 666.450 314.764, 667.391 314.404 C 668.269 314.066, 668.740 313.388, 668.435 312.895 C 668.131 312.403, 668.359 312, 668.941 312 C 669.523 312, 669.911 311.663, 669.802 311.250 C 669.395 309.712, 671.178 305.992, 672.061 306.537 C 672.565 306.849, 672.711 306.409, 672.385 305.560 C 672.036 304.652, 672.450 303.764, 673.391 303.404 C 674.269 303.066, 674.740 302.388, 674.435 301.895 C 674.131 301.403, 674.385 301, 675 301 C 675.615 301, 675.840 300.550, 675.500 300 C 675.160 299.450, 675.385 299, 676 299 C 676.615 299, 676.856 298.577, 676.537 298.060 C 676.217 297.542, 676.978 296.126, 678.228 294.913 C 679.478 293.699, 679.825 293.030, 679 293.427 C 678.060 293.879, 678.147 293.617, 679.234 292.725 C 680.188 291.943, 680.676 291.009, 680.318 290.651 C 679.960 290.293, 680.218 290, 680.892 290 C 681.566 290, 681.840 289.550, 681.500 289 C 681.160 288.450, 681.385 288, 682 288 C 682.615 288, 682.850 287.566, 682.523 287.036 C 682.195 286.507, 682.806 285.194, 683.880 284.120 C 684.954 283.046, 685.571 281.904, 685.250 281.583 C 684.929 281.262, 685.218 281, 685.892 281 C 686.566 281, 686.840 280.550, 686.500 280 C 686.160 279.450, 686.385 279, 687 279 C 687.615 279, 687.838 278.547, 687.496 277.993 C 687.153 277.439, 687.574 276.717, 688.431 276.388 C 689.288 276.059, 689.740 275.388, 689.435 274.895 C 689.131 274.403, 689.385 274, 690 274 C 690.615 274, 690.840 273.550, 690.500 273 C 690.160 272.450, 690.385 272, 691 272 C 691.615 272, 691.850 271.566, 691.523 271.036 C 691.195 270.507, 691.843 269.157, 692.964 268.036 C 694.084 266.916, 694.689 266, 694.309 266 C 693.929 266, 694.491 265.292, 695.559 264.426 C 696.626 263.560, 696.825 263.143, 696 263.500 C 695.175 263.857, 695.374 263.440, 696.441 262.574 C 697.509 261.708, 697.985 261, 697.500 261 C 697.015 261, 697.491 260.292, 698.559 259.426 C 699.626 258.560, 699.825 258.143, 699 258.500 C 698.175 258.857, 698.374 258.440, 699.441 257.574 C 700.509 256.708, 700.959 255.986, 700.441 255.970 C 699.924 255.953, 700.297 255.475, 701.271 254.908 C 702.245 254.341, 702.810 253.502, 702.527 253.043 C 702.243 252.585, 702.764 251.921, 703.684 251.568 C 705.929 250.706, 701.201 247.521, 686.544 240.022 C 658.071 225.455, 623.460 215.013, 588.500 210.442 C 577.182 208.963, 534.484 207.702, 525.500 208.582 M 797.766 313.570 C 797.436 314.103, 797.268 315.992, 797.391 317.769 C 797.514 319.546, 797.293 321, 796.900 321 C 796.507 321, 796.166 325.050, 796.142 330 C 796.118 335.126, 796.514 339, 797.062 339 C 797.630 339, 797.752 340.700, 797.360 343.153 C 796.839 346.408, 796.974 347.134, 797.986 346.509 C 798.995 345.885, 799.124 346.528, 798.575 349.454 C 798.050 352.249, 798.177 353.009, 799.075 352.454 C 799.970 351.901, 800.102 352.641, 799.593 355.355 C 799.127 357.837, 799.277 359, 800.063 359 C 800.794 359, 800.987 359.915, 800.589 361.500 C 800.198 363.059, 800.386 364, 801.089 364 C 801.793 364, 801.981 364.941, 801.589 366.500 C 801.208 368.018, 801.389 369, 802.048 369 C 802.680 369, 802.869 369.838, 802.500 371 C 802.120 372.198, 802.320 373, 803 373 C 803.680 373, 803.880 373.802, 803.500 375 C 803.120 376.198, 803.320 377, 804 377 C 804.680 377, 804.880 377.802, 804.500 379 C 804.120 380.198, 804.320 381, 805 381 C 805.702 381, 805.878 381.811, 805.460 383.125 C 804.963 384.691, 805.119 385.045, 806.050 384.469 C 806.971 383.900, 807.162 384.274, 806.751 385.844 C 806.441 387.030, 806.625 388, 807.161 388 C 807.697 388, 807.849 388.900, 807.500 390 C 807.111 391.225, 807.320 392, 808.040 392 C 808.686 392, 808.955 392.675, 808.638 393.500 C 808.322 394.325, 808.529 395, 809.099 395 C 809.680 395, 809.856 395.879, 809.500 397 C 809.120 398.198, 809.320 399, 810 399 C 810.702 399, 810.878 399.811, 810.460 401.125 C 809.963 402.691, 810.119 403.045, 811.050 402.469 C 811.971 401.900, 812.162 402.274, 811.751 403.844 C 811.441 405.030, 811.625 406, 812.161 406 C 812.697 406, 812.849 406.900, 812.500 408 C 812.111 409.225, 812.320 410, 813.040 410 C 813.686 410, 813.955 410.675, 813.638 411.500 C 813.322 412.325, 813.529 413, 814.099 413 C 814.680 413, 814.856 413.879, 814.500 415 C 814.111 416.225, 814.320 417, 815.040 417 C 815.686 417, 815.955 417.675, 815.638 418.500 C 815.322 419.325, 815.529 420, 816.099 420 C 816.680 420, 816.856 420.879, 816.500 422 C 816.111 423.225, 816.320 424, 817.040 424 C 817.686 424, 817.955 424.675, 817.638 425.500 C 817.322 426.325, 817.551 427, 818.148 427 C 818.745 427, 818.998 427.900, 818.710 429 C 818.423 430.100, 818.625 431, 819.161 431 C 819.697 431, 819.849 431.900, 819.500 433 C 819.111 434.225, 819.320 435, 820.040 435 C 820.686 435, 820.955 435.675, 820.638 436.500 C 820.322 437.325, 820.529 438, 821.099 438 C 821.700 438, 821.852 438.892, 821.460 440.125 C 820.966 441.682, 821.121 442.043, 822.039 441.476 C 822.980 440.894, 823.121 441.381, 822.606 443.435 C 822.105 445.428, 822.244 445.967, 823.117 445.427 C 823.958 444.908, 824.147 445.330, 823.751 446.844 C 823.441 448.030, 823.625 449, 824.161 449 C 824.697 449, 824.849 449.900, 824.500 451 C 824.120 452.198, 824.320 453, 825 453 C 825.680 453, 825.880 453.802, 825.500 455 C 825.111 456.225, 825.320 457, 826.040 457 C 826.686 457, 826.960 457.661, 826.651 458.468 C 826.341 459.275, 826.548 460.221, 827.112 460.569 C 827.675 460.917, 827.895 461.832, 827.600 462.601 C 827.304 463.371, 827.529 464, 828.099 464 C 828.680 464, 828.856 464.879, 828.500 466 C 828.120 467.198, 828.320 468, 829 468 C 829.680 468, 829.880 468.802, 829.500 470 C 829.120 471.198, 829.320 472, 830 472 C 830.680 472, 830.880 472.802, 830.500 474 C 830.120 475.198, 830.320 476, 831 476 C 831.702 476, 831.878 476.811, 831.460 478.125 C 830.966 479.682, 831.121 480.043, 832.039 479.476 C 832.980 478.894, 833.121 479.381, 832.606 481.435 C 832.109 483.415, 832.246 483.966, 833.106 483.435 C 833.961 482.906, 834.106 483.440, 833.627 485.351 C 833.213 486.999, 833.372 488, 834.048 488 C 834.680 488, 834.869 488.838, 834.500 490 C 834.120 491.198, 834.320 492, 835 492 C 835.680 492, 835.880 492.802, 835.500 494 C 835.120 495.198, 835.320 496, 836 496 C 836.680 496, 836.880 496.802, 836.500 498 C 836.120 499.198, 836.320 500, 837 500 C 837.680 500, 837.880 500.802, 837.500 502 C 837.120 503.198, 837.320 504, 838 504 C 838.702 504, 838.878 504.811, 838.460 506.125 C 837.963 507.691, 838.119 508.045, 839.050 507.469 C 839.971 506.900, 840.162 507.274, 839.751 508.844 C 839.441 510.030, 839.648 511, 840.210 511 C 840.773 511, 840.998 511.900, 840.710 513 C 840.423 514.100, 840.604 515, 841.113 515 C 841.622 515, 841.739 516.192, 841.373 517.649 C 840.867 519.668, 841.016 520.108, 842 519.500 C 842.984 518.892, 843.133 519.332, 842.627 521.351 C 842.202 523.042, 842.369 524, 843.088 524 C 843.707 524, 843.960 524.661, 843.651 525.468 C 843.341 526.275, 843.548 527.221, 844.112 527.569 C 844.675 527.917, 844.895 528.832, 844.600 529.601 C 844.304 530.371, 844.551 531, 845.148 531 C 845.745 531, 845.998 531.900, 845.711 532.999 C 845.423 534.098, 845.626 535.269, 846.162 535.600 C 846.698 535.931, 846.895 536.832, 846.600 537.601 C 846.304 538.371, 846.551 539, 847.148 539 C 847.745 539, 847.998 539.900, 847.710 541 C 847.423 542.100, 847.648 543, 848.210 543 C 848.773 543, 848.998 543.900, 848.710 545 C 848.423 546.100, 848.604 547, 849.113 547 C 849.622 547, 849.739 548.192, 849.373 549.649 C 848.867 551.668, 849.016 552.108, 850 551.500 C 850.989 550.889, 851.131 551.343, 850.606 553.435 C 850.105 555.428, 850.244 555.967, 851.117 555.427 C 851.958 554.908, 852.147 555.330, 851.751 556.844 C 851.441 558.030, 851.644 559, 852.202 559 C 852.794 559, 852.947 560.077, 852.568 561.584 C 852.099 563.452, 852.251 563.963, 853.117 563.427 C 853.958 562.908, 854.147 563.330, 853.751 564.844 C 853.441 566.030, 853.648 567, 854.210 567 C 854.773 567, 854.998 567.900, 854.710 569 C 854.423 570.100, 854.625 571, 855.161 571 C 855.697 571, 855.849 571.900, 855.500 573 C 855.120 574.198, 855.320 575, 856 575 C 856.680 575, 856.880 575.802, 856.500 577 C 856.120 578.198, 856.320 579, 857 579 C 857.702 579, 857.878 579.811, 857.460 581.125 C 856.966 582.682, 857.121 583.043, 858.039 582.476 C 858.980 581.894, 859.121 582.381, 858.606 584.435 C 858.105 586.428, 858.244 586.967, 859.117 586.427 C 859.958 585.908, 860.147 586.330, 859.751 587.844 C 859.441 589.030, 859.625 590, 860.161 590 C 860.697 590, 860.849 590.900, 860.500 592 C 860.120 593.198, 860.320 594, 861 594 C 861.680 594, 861.880 594.802, 861.500 596 C 861.144 597.121, 861.320 598, 861.901 598 C 862.471 598, 862.678 598.675, 862.362 599.500 C 862.045 600.325, 862.314 601, 862.960 601 C 863.680 601, 863.889 601.775, 863.500 603 C 863.144 604.121, 863.320 605, 863.901 605 C 864.471 605, 864.678 605.675, 864.362 606.500 C 864.045 607.325, 864.314 608, 864.960 608 C 865.663 608, 865.890 608.770, 865.527 609.916 C 865.192 610.970, 865.367 612.109, 865.916 612.448 C 866.464 612.787, 866.659 613.725, 866.349 614.532 C 866.040 615.339, 866.270 616, 866.862 616 C 867.453 616, 867.696 616.629, 867.400 617.399 C 867.105 618.168, 867.293 619.063, 867.818 619.388 C 868.892 620.051, 868.757 620.466, 873.491 601.882 C 894.848 518.030, 879.445 424.184, 832.971 355 C 821.013 337.199, 799.100 311.412, 797.766 313.570 M 723 322.261 C 723 322.785, 722.325 322.955, 721.500 322.638 C 720.675 322.322, 720 322.525, 720 323.090 C 720 323.656, 719.550 323.840, 719 323.500 C 718.450 323.160, 718 323.328, 718 323.874 C 718 324.768, 713.986 326.598, 713.159 326.080 C 712.971 325.963, 712.198 326.684, 711.441 327.683 C 710.683 328.683, 710.049 329.113, 710.032 328.639 C 710.014 328.166, 709.066 328.841, 707.924 330.139 C 706.782 331.438, 706.147 331.825, 706.513 331 C 706.879 330.175, 705.501 331.300, 703.451 333.500 C 701.402 335.700, 698.099 339.014, 696.112 340.865 C 694.126 342.716, 693.400 343.679, 694.500 343.005 C 695.600 342.331, 694.475 343.682, 692 346.006 C 689.525 348.330, 688.109 349.899, 688.854 349.493 C 691.018 348.311, 687.158 353.695, 684.135 356.075 C 682.686 357.215, 682.175 357.857, 683 357.502 C 683.825 357.146, 683.150 358.062, 681.500 359.537 C 679.850 361.013, 679.096 361.898, 679.824 361.505 C 680.911 360.918, 680.920 361.155, 679.874 362.831 C 679.173 363.953, 678.170 364.605, 677.645 364.281 C 677.120 363.956, 677.010 364.207, 677.399 364.837 C 677.789 365.468, 677.006 367.085, 675.660 368.431 C 674.314 369.777, 673.454 371.120, 673.749 371.416 C 674.045 371.711, 673.549 372.236, 672.649 372.581 C 671.748 372.927, 671.250 373.596, 671.542 374.068 C 671.834 374.541, 671.194 375.806, 670.120 376.880 C 669.046 377.954, 668.419 379.085, 668.726 379.393 C 669.034 379.701, 668.549 380.236, 667.649 380.581 C 666.748 380.927, 666.250 381.596, 666.542 382.068 C 666.834 382.541, 666.269 383.768, 665.286 384.797 C 664.304 385.825, 663.360 387.304, 663.189 388.083 C 663.018 388.862, 661.893 390.327, 660.689 391.337 C 659.485 392.347, 659.175 392.876, 660 392.513 C 660.825 392.149, 660.626 392.560, 659.559 393.426 C 658.491 394.292, 657.946 395, 658.348 395 C 658.749 395, 658.176 395.968, 657.074 397.151 C 655.971 398.335, 655.305 399.685, 655.594 400.151 C 655.882 400.618, 655.615 401, 655 401 C 654.385 401, 654.131 401.403, 654.435 401.895 C 654.740 402.388, 654.288 403.059, 653.431 403.388 C 652.574 403.717, 652.153 404.439, 652.496 404.993 C 652.838 405.547, 652.615 406, 652 406 C 651.385 406, 651.160 406.450, 651.500 407 C 651.840 407.550, 651.615 408, 651 408 C 650.385 408, 650.150 408.434, 650.477 408.964 C 650.805 409.493, 650.194 410.806, 649.120 411.880 C 648.046 412.954, 647.466 414.133, 647.832 414.498 C 648.198 414.864, 647.778 415.689, 646.899 416.332 C 646.020 416.974, 645.228 417.950, 645.139 418.500 C 644.682 421.304, 643.759 422.969, 642.939 422.463 C 642.435 422.151, 642.289 422.591, 642.615 423.440 C 642.964 424.348, 642.550 425.236, 641.609 425.596 C 640.731 425.934, 640.260 426.612, 640.565 427.105 C 640.869 427.597, 640.615 428, 640 428 C 639.385 428, 639.160 428.450, 639.500 429 C 639.840 429.550, 639.615 430, 639 430 C 638.385 430, 638.160 430.450, 638.500 431 C 638.840 431.550, 638.615 432, 638 432 C 637.385 432, 637.160 432.450, 637.500 433 C 637.840 433.550, 637.615 434, 637 434 C 636.385 434, 636.160 434.450, 636.500 435 C 636.840 435.550, 636.615 436, 636 436 C 635.385 436, 635.138 436.414, 635.450 436.919 C 635.763 437.425, 635.323 438.534, 634.473 439.384 C 633.624 440.233, 632.939 441.282, 632.952 441.714 C 633.007 443.506, 631.797 446, 630.874 446 C 630.328 446, 630.160 446.450, 630.500 447 C 630.840 447.550, 630.615 448, 630 448 C 629.385 448, 629.160 448.450, 629.500 449 C 629.840 449.550, 629.615 450, 629 450 C 628.385 450, 628.160 450.450, 628.500 451 C 628.840 451.550, 628.615 452, 628 452 C 627.385 452, 627.160 452.450, 627.500 453 C 627.840 453.550, 627.615 454, 627 454 C 626.385 454, 626.160 454.450, 626.500 455 C 626.840 455.550, 626.615 456, 626 456 C 625.385 456, 625.160 456.450, 625.500 457 C 625.840 457.550, 625.656 458, 625.090 458 C 624.525 458, 624.300 458.617, 624.589 459.371 C 624.878 460.125, 624.436 461.422, 623.605 462.252 C 622.775 463.082, 622.374 464.040, 622.714 464.381 C 623.055 464.721, 622.782 465, 622.108 465 C 621.434 465, 621.160 465.450, 621.500 466 C 621.840 466.550, 621.656 467, 621.090 467 C 620.525 467, 620.350 467.749, 620.701 468.664 C 621.128 469.775, 620.955 470.090, 620.181 469.612 C 619.447 469.158, 619.223 469.417, 619.569 470.319 C 619.869 471.102, 619.436 472.422, 618.605 473.252 C 617.775 474.082, 617.374 475.040, 617.714 475.381 C 618.055 475.721, 617.822 476, 617.198 476 C 616.550 476, 616.337 476.714, 616.701 477.664 C 617.168 478.880, 616.979 479.105, 616 478.500 C 615.021 477.895, 614.832 478.120, 615.299 479.336 C 615.650 480.251, 615.475 481, 614.910 481 C 614.344 481, 614.160 481.450, 614.500 482 C 614.840 482.550, 614.656 483, 614.090 483 C 613.525 483, 613.322 483.675, 613.638 484.500 C 613.955 485.325, 613.689 486, 613.048 486 C 612.407 486, 612.160 486.450, 612.500 487 C 612.840 487.550, 612.656 488, 612.090 488 C 611.525 488, 611.322 488.675, 611.638 489.500 C 611.955 490.325, 611.689 491, 611.048 491 C 610.407 491, 610.160 491.450, 610.500 492 C 610.840 492.550, 610.656 493, 610.090 493 C 609.525 493, 609.322 493.675, 609.638 494.500 C 609.955 495.325, 609.689 496, 609.048 496 C 608.407 496, 608.160 496.450, 608.500 497 C 608.840 497.550, 608.656 498, 608.090 498 C 607.525 498, 607.322 498.675, 607.638 499.500 C 607.955 500.325, 607.730 501, 607.138 501 C 606.546 501, 606.350 501.748, 606.701 502.664 C 607.168 503.880, 606.979 504.105, 606 503.500 C 605.021 502.895, 604.832 503.120, 605.299 504.336 C 605.650 505.251, 605.515 506, 605 506 C 604.485 506, 604.322 506.675, 604.638 507.500 C 604.955 508.325, 604.730 509, 604.138 509 C 603.547 509, 603.322 509.675, 603.638 510.500 C 603.955 511.325, 603.730 512, 603.138 512 C 602.547 512, 602.322 512.675, 602.638 513.500 C 602.955 514.325, 602.730 515, 602.138 515 C 601.547 515, 601.322 515.675, 601.638 516.500 C 601.955 517.325, 601.730 518, 601.138 518 C 600.547 518, 600.322 518.675, 600.638 519.500 C 600.955 520.325, 600.730 521, 600.138 521 C 599.547 521, 599.322 521.675, 599.638 522.500 C 599.955 523.325, 599.758 524, 599.201 524 C 598.643 524, 598.441 524.970, 598.751 526.156 C 599.162 527.726, 598.971 528.100, 598.050 527.531 C 597.119 526.955, 596.963 527.309, 597.460 528.875 C 597.833 530.049, 597.699 531, 597.161 531 C 596.625 531, 596.441 531.970, 596.751 533.156 C 597.147 534.670, 596.958 535.092, 596.117 534.573 C 595.251 534.037, 595.099 534.548, 595.568 536.416 C 595.947 537.923, 595.794 539, 595.202 539 C 594.644 539, 594.423 539.900, 594.710 541 C 595.023 542.196, 594.741 543, 594.008 543 C 593.201 543, 592.997 543.852, 593.411 545.500 C 593.790 547.011, 593.611 548, 592.958 548 C 592.244 548, 592.106 549.527, 592.552 552.500 C 593.009 555.543, 592.867 557, 592.114 557 C 591.430 557, 591 559.126, 591 562.500 C 591 565.867, 591.431 568, 592.111 568 C 592.840 568, 592.996 569.206, 592.566 571.500 C 592.124 573.857, 592.286 575, 593.063 575 C 593.804 575, 593.985 575.924, 593.568 577.584 C 593.099 579.452, 593.251 579.963, 594.117 579.427 C 594.958 578.908, 595.147 579.330, 594.751 580.845 C 594.386 582.241, 594.566 582.768, 595.263 582.337 C 595.944 581.916, 596.105 582.283, 595.701 583.336 C 595.350 584.251, 595.525 585, 596.090 585 C 596.656 585, 596.869 585.403, 596.565 585.895 C 596.260 586.388, 596.748 587.073, 597.649 587.419 C 598.549 587.764, 599.052 588.282, 598.765 588.568 C 598.025 589.308, 604.199 595.371, 605.982 595.655 C 606.797 595.785, 607.623 596.368, 607.817 596.952 C 608.012 597.535, 608.582 597.758, 609.085 597.447 C 609.588 597.136, 610 597.316, 610 597.847 C 610 598.378, 610.900 598.577, 612 598.290 C 613.100 598.002, 614 598.216, 614 598.765 C 614 599.315, 615.800 599.789, 618 599.819 C 620.200 599.850, 622 599.400, 622 598.821 C 622 598.241, 622.900 598.002, 624 598.290 C 625.100 598.577, 626 598.357, 626 597.799 C 626 597.242, 626.675 597.045, 627.500 597.362 C 628.325 597.678, 629 597.453, 629 596.862 C 629 596.270, 629.675 596.045, 630.500 596.362 C 631.325 596.678, 632 596.475, 632 595.910 C 632 595.344, 632.450 595.160, 633 595.500 C 633.550 595.840, 634 595.566, 634 594.892 C 634 594.218, 634.293 593.960, 634.651 594.318 C 635.009 594.676, 635.943 594.188, 636.725 593.234 C 637.666 592.088, 637.924 592.008, 637.487 593 C 637.124 593.825, 637.805 593.375, 639 592 C 640.195 590.625, 640.876 590.175, 640.513 591 C 640.076 591.992, 640.334 591.912, 641.275 590.766 C 642.057 589.812, 642.991 589.324, 643.349 589.682 C 643.707 590.040, 644 589.782, 644 589.108 C 644 588.434, 644.450 588.160, 645 588.500 C 645.550 588.840, 646 588.615, 646 588 C 646 587.385, 646.450 587.160, 647 587.500 C 647.550 587.840, 648 587.684, 648 587.153 C 648 586.622, 648.900 586.423, 650 586.710 C 651.118 587.003, 652 586.741, 652 586.117 C 652 585.502, 653.125 585, 654.500 585 C 655.875 585, 657 585.480, 657 586.067 C 657 586.680, 657.853 586.864, 659 586.500 C 660.192 586.122, 661 586.320, 661 586.992 C 661 587.611, 661.450 587.840, 662 587.500 C 662.550 587.160, 663 587.373, 663 587.972 C 663 588.572, 663.768 589.357, 664.706 589.717 C 667.291 590.709, 669.962 593.253, 669.390 594.178 C 669.110 594.630, 669.385 595, 670 595 C 670.615 595, 670.840 595.450, 670.500 596 C 670.160 596.550, 670.385 597, 671 597 C 671.615 597, 671.840 597.450, 671.500 598 C 671.160 598.550, 671.344 599, 671.910 599 C 672.475 599, 672.650 599.749, 672.299 600.664 C 671.837 601.868, 672.024 602.103, 672.976 601.515 C 673.990 600.888, 674.139 601.310, 673.627 603.351 C 673.210 605.012, 673.372 606, 674.060 606 C 674.761 606, 674.920 607.087, 674.500 609 C 674.085 610.887, 674.241 612, 674.921 612 C 675.597 612, 676 614.799, 676 619.500 C 676 624.334, 675.605 627, 674.889 627 C 674.160 627, 674.004 628.206, 674.434 630.500 C 674.868 632.815, 674.710 634, 673.966 634 C 673.236 634, 673.073 635.054, 673.500 637 C 673.905 638.844, 673.755 640, 673.111 640 C 672.534 640, 672.322 640.675, 672.638 641.500 C 672.955 642.325, 672.686 643, 672.040 643 C 671.320 643, 671.111 643.775, 671.500 645 C 671.856 646.121, 671.680 647, 671.099 647 C 670.529 647, 670.322 647.675, 670.638 648.500 C 670.955 649.325, 670.730 650, 670.138 650 C 669.546 650, 669.350 650.748, 669.701 651.664 C 670.168 652.880, 669.979 653.105, 669 652.500 C 668.021 651.895, 667.832 652.120, 668.299 653.336 C 668.650 654.251, 668.475 655, 667.910 655 C 667.344 655, 667.160 655.450, 667.500 656 C 667.840 656.550, 667.615 657, 667 657 C 666.385 657, 666.160 657.450, 666.500 658 C 666.840 658.550, 666.615 659, 666 659 C 665.385 659, 665.160 659.450, 665.500 660 C 665.840 660.550, 665.615 661, 665 661 C 664.385 661, 664.160 661.450, 664.500 662 C 664.840 662.550, 664.656 663, 664.090 663 C 663.525 663, 663.320 663.671, 663.635 664.492 C 663.961 665.342, 663.521 666.247, 662.609 666.596 C 661.731 666.934, 661.260 667.612, 661.565 668.105 C 661.869 668.597, 661.615 669, 661 669 C 660.385 669, 660.162 669.453, 660.504 670.007 C 660.847 670.561, 660.426 671.283, 659.569 671.612 C 658.712 671.941, 658.231 672.565, 658.500 673 C 658.769 673.435, 658.288 674.059, 657.431 674.388 C 656.574 674.717, 656.164 675.457, 656.520 676.032 C 656.875 676.607, 655.441 678.700, 653.333 680.682 C 651.225 682.665, 650.175 683.924, 651 683.480 C 651.825 683.036, 649.461 685.488, 645.747 688.928 C 642.033 692.368, 639.228 695.560, 639.514 696.022 C 639.799 696.484, 639.506 697.187, 638.862 697.585 C 638.085 698.066, 637.937 697.836, 638.422 696.905 C 638.824 696.132, 638.159 696.625, 636.944 698 C 635.729 699.375, 634.358 700.392, 633.898 700.260 C 633.437 700.128, 632.574 700.928, 631.980 702.038 C 631.386 703.148, 630.519 703.821, 630.055 703.534 C 629.590 703.247, 628.941 703.712, 628.612 704.569 C 628.283 705.426, 627.608 705.876, 627.112 705.569 C 626.616 705.262, 625.941 705.712, 625.612 706.569 C 625.283 707.426, 624.561 707.847, 624.007 707.504 C 623.453 707.162, 623 707.385, 623 708 C 623 708.615, 622.550 708.840, 622 708.500 C 621.450 708.160, 621 708.385, 621 709 C 621 709.615, 620.550 709.840, 620 709.500 C 619.450 709.160, 619 709.385, 619 710 C 619 710.615, 618.550 710.840, 618 710.500 C 617.450 710.160, 617 710.385, 617 711 C 617 711.615, 616.550 711.840, 616 711.500 C 615.450 711.160, 615 711.407, 615 712.048 C 615 712.689, 614.325 712.955, 613.500 712.638 C 612.675 712.322, 612 712.485, 612 713 C 612 713.515, 611.251 713.650, 610.336 713.299 C 609.153 712.845, 608.900 713.029, 609.461 713.937 C 610.046 714.883, 609.700 715.040, 608.125 714.540 C 606.811 714.122, 606 714.298, 606 715 C 606 715.680, 605.198 715.880, 604 715.500 C 602.763 715.107, 602 715.320, 602 716.058 C 602 716.849, 600.991 717.048, 599 716.650 C 597.308 716.312, 596 716.475, 596 717.025 C 596 717.565, 592.880 718, 589 718 C 584.623 718, 582 717.592, 582 716.912 C 582 716.191, 580.607 716.059, 577.873 716.521 C 574.690 717.059, 573.924 716.932, 574.523 715.963 C 575.103 715.024, 574.633 714.875, 572.649 715.373 C 571.001 715.787, 570 715.628, 570 714.952 C 570 714.320, 569.162 714.131, 568 714.500 C 566.879 714.856, 566 714.680, 566 714.099 C 566 713.529, 565.251 713.350, 564.336 713.701 C 563.120 714.168, 562.895 713.979, 563.500 713 C 564.098 712.032, 563.885 711.830, 562.729 712.274 C 561.849 712.611, 560.981 712.443, 560.800 711.899 C 560.619 711.356, 559.465 710.835, 558.235 710.743 C 557.006 710.650, 556 710.194, 556 709.728 C 556 709.263, 555.550 709.160, 555 709.500 C 554.450 709.840, 554 709.615, 554 709 C 554 708.385, 553.550 708.160, 553 708.500 C 552.450 708.840, 552 708.615, 552 708 C 552 707.385, 551.547 707.162, 550.993 707.504 C 550.439 707.847, 549.717 707.426, 549.388 706.569 C 549.059 705.712, 548.387 705.261, 547.894 705.566 C 547.400 705.871, 545.588 704.630, 543.866 702.810 C 542.144 700.989, 541.058 700.175, 541.452 701 C 541.846 701.825, 540.743 700.925, 539 699 C 537.257 697.075, 536.164 696.132, 536.570 696.905 C 537.061 697.838, 536.917 698.066, 536.138 697.585 C 535.494 697.187, 535.189 696.503, 535.460 696.065 C 536.005 695.184, 532.172 691.352, 531.145 691.750 C 530.790 691.888, 530.480 691.438, 530.455 690.750 C 530.430 690.063, 529.867 689.612, 529.205 689.750 C 528.542 689.887, 528.113 689.631, 528.250 689.179 C 528.388 688.728, 527.150 687.117, 525.500 685.599 C 523.850 684.081, 523.175 683.134, 524 683.496 C 524.825 683.857, 524.375 683.167, 523 681.963 C 521.625 680.760, 520.444 679.375, 520.375 678.887 C 520.306 678.399, 520.194 677.550, 520.125 677 C 520.056 676.450, 519.523 676, 518.941 676 C 518.359 676, 518.160 676.450, 518.500 677 C 518.840 677.550, 518.615 678, 518 678 C 517.385 678, 517.162 678.453, 517.504 679.007 C 517.847 679.561, 517.426 680.283, 516.569 680.612 C 515.712 680.941, 515.262 681.616, 515.569 682.112 C 515.876 682.608, 515.426 683.283, 514.569 683.612 C 513.712 683.941, 513.243 684.585, 513.527 685.043 C 513.810 685.502, 513.245 686.341, 512.271 686.908 C 511.297 687.475, 510.924 687.953, 511.441 687.970 C 511.959 687.986, 511.509 688.708, 510.441 689.574 C 509.374 690.440, 509.096 690.843, 509.824 690.470 C 510.911 689.912, 510.920 690.156, 509.874 691.831 C 509.173 692.953, 508.229 693.641, 507.775 693.361 C 507.322 693.081, 507.015 693.222, 507.094 693.676 C 507.464 695.806, 506.894 697.052, 505.845 696.405 C 505.133 695.964, 504.962 696.130, 505.399 696.837 C 505.790 697.469, 504.983 699.108, 503.599 700.492 C 502.220 701.871, 501.408 703.007, 501.795 703.015 C 502.183 703.024, 501.825 703.457, 501 703.979 C 500.175 704.500, 499.500 705.374, 499.500 705.920 C 499.500 706.467, 498.600 707.642, 497.500 708.531 C 496.400 709.421, 496.175 709.857, 497 709.500 C 497.825 709.143, 497.600 709.579, 496.500 710.469 C 495.400 711.358, 494.500 712.533, 494.500 713.080 C 494.500 713.626, 493.825 714.500, 493 715.021 C 492.175 715.543, 491.950 715.986, 492.500 716.007 C 493.050 716.028, 492.375 716.974, 491 718.109 C 489.625 719.245, 489.175 719.877, 490 719.514 C 490.825 719.152, 490.150 720.062, 488.500 721.537 C 486.850 723.013, 486.175 723.913, 487 723.537 C 487.825 723.162, 487.150 724.062, 485.500 725.537 C 483.850 727.013, 483.175 727.911, 484 727.534 C 484.825 727.156, 484.375 727.833, 483 729.037 C 481.625 730.240, 480.500 731.605, 480.500 732.070 C 480.500 732.534, 479.600 733.642, 478.500 734.531 C 477.400 735.421, 477.175 735.852, 478 735.490 C 478.825 735.128, 477.925 736.257, 476 738 C 474.075 739.743, 473.175 740.873, 474 740.512 C 474.825 740.151, 474.150 741.062, 472.500 742.537 C 470.850 744.013, 470.175 744.913, 471 744.537 C 471.825 744.162, 470.700 745.528, 468.500 747.573 C 466.300 749.618, 465.400 750.719, 466.500 750.019 C 467.600 749.319, 466.475 750.641, 464 752.956 C 461.525 755.271, 460.175 756.870, 461 756.510 C 461.825 756.150, 460.700 757.508, 458.500 759.527 C 456.300 761.547, 455.175 762.893, 456 762.517 C 456.825 762.142, 455.475 763.729, 453 766.044 C 450.525 768.359, 449.400 769.694, 450.500 769.010 C 451.600 768.326, 450.004 770.181, 446.954 773.133 C 443.904 776.085, 442.329 777.872, 443.454 777.105 C 444.579 776.338, 441.900 779.137, 437.500 783.325 C 433.100 787.513, 426.191 794.441, 422.147 798.720 C 418.103 802.999, 415.095 805.825, 415.463 805 C 415.831 804.175, 414.077 805.738, 411.566 808.473 C 409.055 811.208, 407 813.065, 407 812.600 C 407 812.135, 406.330 812.311, 405.511 812.991 C 404.692 813.671, 404.269 814.626, 404.570 815.113 C 404.871 815.601, 404.529 816.022, 403.809 816.049 C 402.013 816.117, 413.904 822.139, 424.651 826.605 C 483.817 851.188, 555.281 858.593, 620.403 846.887 C 681.762 835.858, 736.811 809.510, 781.922 769.580 C 792.696 760.044, 793.230 759.156, 789.750 756.576 C 788.513 755.658, 788.175 755.186, 789 755.526 C 789.825 755.866, 789.150 754.989, 787.500 753.577 C 785.850 752.165, 784.950 750.994, 785.500 750.975 C 786.050 750.955, 785.703 750.475, 784.729 749.908 C 783.755 749.341, 783.221 748.452, 783.542 747.931 C 783.864 747.411, 783.426 746.717, 782.569 746.388 C 781.712 746.059, 781.231 745.435, 781.500 745 C 781.769 744.565, 781.288 743.941, 780.431 743.612 C 779.574 743.283, 779.153 742.561, 779.496 742.007 C 779.838 741.453, 779.615 741, 779 741 C 778.385 741, 778.162 740.547, 778.504 739.993 C 778.847 739.439, 778.426 738.717, 777.569 738.388 C 776.712 738.059, 776.260 737.388, 776.565 736.895 C 776.869 736.403, 776.615 736, 776 736 C 775.385 736, 775.131 735.597, 775.435 735.105 C 775.740 734.612, 775.288 733.941, 774.431 733.612 C 773.574 733.283, 773.153 732.561, 773.496 732.007 C 773.838 731.453, 773.615 731, 773 731 C 772.385 731, 772.160 730.550, 772.500 730 C 772.840 729.450, 772.615 729, 772 729 C 771.385 729, 771.160 728.550, 771.500 728 C 771.840 727.450, 771.615 727, 771 727 C 770.385 727, 770.160 726.550, 770.500 726 C 770.840 725.450, 770.615 725, 770 725 C 769.385 725, 769.160 724.550, 769.500 724 C 769.840 723.450, 769.593 723, 768.952 723 C 768.311 723, 768.045 722.325, 768.362 721.500 C 768.678 720.675, 768.475 720, 767.910 720 C 767.344 720, 767.160 719.550, 767.500 719 C 767.840 718.450, 767.615 718, 767 718 C 766.385 718, 766.160 717.550, 766.500 717 C 766.840 716.450, 766.615 716, 766 716 C 765.385 716, 765.160 715.550, 765.500 715 C 765.840 714.450, 765.593 714, 764.952 714 C 764.309 714, 764.053 713.304, 764.382 712.448 C 764.771 711.434, 764.575 711.144, 763.819 711.612 C 763.045 712.090, 762.872 711.775, 763.299 710.664 C 763.650 709.748, 763.454 709, 762.862 709 C 762.270 709, 762.045 708.325, 762.362 707.500 C 762.678 706.675, 762.515 706, 762 706 C 761.485 706, 761.350 705.251, 761.701 704.336 C 762.155 703.153, 761.971 702.900, 761.063 703.461 C 760.106 704.053, 759.965 703.686, 760.500 702 C 761.035 700.314, 760.894 699.947, 759.937 700.539 C 759.029 701.100, 758.845 700.847, 759.299 699.664 C 759.650 698.748, 759.454 698, 758.862 698 C 758.270 698, 758.045 697.325, 758.362 696.500 C 758.678 695.675, 758.471 695, 757.901 695 C 757.300 695, 757.148 694.108, 757.540 692.875 C 758.037 691.309, 757.881 690.955, 756.950 691.531 C 756.029 692.100, 755.838 691.726, 756.249 690.156 C 756.559 688.970, 756.375 688, 755.839 688 C 755.301 688, 755.167 687.049, 755.540 685.875 C 756.037 684.309, 755.881 683.955, 754.950 684.531 C 754.029 685.100, 753.838 684.726, 754.249 683.156 C 754.559 681.970, 754.352 681, 753.790 681 C 753.227 681, 753.002 680.100, 753.290 679 C 753.577 677.900, 753.356 677, 752.798 677 C 752.206 677, 752.053 675.923, 752.432 674.416 C 752.897 672.560, 752.746 672.039, 751.894 672.565 C 751.039 673.094, 750.894 672.560, 751.373 670.649 C 751.798 668.957, 751.631 668, 750.911 668 C 750.207 668, 750.019 667.059, 750.411 665.500 C 750.795 663.970, 750.612 663, 749.940 663 C 749.230 663, 749.084 661.895, 749.527 659.875 C 750.051 657.492, 749.914 656.935, 748.951 657.530 C 747.992 658.123, 747.840 657.552, 748.319 655.155 C 748.717 653.164, 748.549 652, 747.864 652 C 747.158 652, 747.014 650.739, 747.452 648.402 C 747.960 645.697, 747.824 644.991, 746.906 645.558 C 745.979 646.131, 745.840 645.180, 746.331 641.605 C 746.799 638.186, 746.662 637.091, 745.829 637.606 C 744.988 638.126, 744.855 636.608, 745.332 631.907 C 745.802 627.268, 745.689 625.914, 744.921 627 C 744.160 628.077, 744.016 625.542, 744.412 618 C 744.762 611.329, 744.630 608.229, 744.051 609.500 C 743.471 610.774, 743.121 602.975, 743.086 588 C 743.049 572.146, 743.353 564.988, 744.022 566 C 744.689 567.010, 744.842 562.923, 744.490 553.500 C 744.133 543.936, 744.280 540.134, 744.954 541.500 C 745.634 542.876, 745.749 540.409, 745.323 533.599 C 744.850 526.037, 744.987 523.874, 745.902 524.439 C 746.814 525.003, 746.936 523.371, 746.412 517.590 C 745.903 511.976, 746.036 510, 746.923 510 C 747.805 510, 747.939 508.157, 747.431 503 C 746.986 498.482, 747.101 496, 747.756 496 C 748.393 496, 748.571 493.529, 748.236 489.349 C 747.818 484.148, 747.977 482.868, 748.964 483.478 C 749.955 484.090, 750.076 482.963, 749.528 478.241 C 749.049 474.113, 749.189 472.001, 749.975 471.516 C 750.748 471.038, 750.901 469.052, 750.445 465.404 C 749.957 461.504, 750.102 460, 750.964 460 C 751.842 460, 751.971 458.238, 751.448 453.360 C 750.940 448.615, 751.052 446.914, 751.840 447.401 C 752.627 447.888, 752.785 445.705, 752.390 439.792 C 751.981 433.664, 752.122 431.891, 752.929 433 C 753.734 434.106, 753.866 432.270, 753.430 426 C 752.997 419.755, 753.128 417.898, 753.927 419 C 754.722 420.099, 754.856 417.824, 754.426 410.500 C 754.071 404.444, 754.196 401.002, 754.743 401.772 C 755.293 402.548, 755.620 396.206, 755.579 385.522 C 755.543 375.885, 755.110 368, 754.619 368 C 754.122 368, 754.016 365.525, 754.379 362.431 C 754.865 358.301, 754.731 357.048, 753.865 357.584 C 753.005 358.115, 752.875 357.186, 753.371 354.080 C 753.868 350.973, 753.737 350.044, 752.878 350.576 C 752.038 351.094, 751.902 350.527, 752.394 348.565 C 752.895 346.572, 752.756 346.033, 751.883 346.573 C 751.042 347.092, 750.853 346.670, 751.249 345.156 C 751.559 343.970, 751.357 343, 750.799 343 C 750.242 343, 750.045 342.325, 750.362 341.500 C 750.678 340.675, 750.475 340, 749.910 340 C 749.344 340, 749.160 339.550, 749.500 339 C 749.840 338.450, 749.593 338, 748.952 338 C 748.309 338, 748.053 337.304, 748.382 336.448 C 748.723 335.558, 748.555 335.157, 747.989 335.507 C 747.082 336.067, 746.556 334.692, 746.906 332.676 C 746.985 332.222, 746.636 332.107, 746.130 332.420 C 745.259 332.958, 743.774 330.669, 743.586 328.500 C 743.539 327.950, 742.957 327.500, 742.293 327.500 C 741.629 327.500, 740.358 326.600, 739.469 325.500 C 738.579 324.400, 738.143 324.175, 738.500 325 C 738.933 326.001, 738.675 325.923, 737.725 324.766 C 736.943 323.812, 736.009 323.324, 735.651 323.682 C 735.293 324.040, 735 323.822, 735 323.198 C 735 322.574, 734.325 322.322, 733.500 322.638 C 732.675 322.955, 732 322.828, 732 322.357 C 732 321.886, 729.975 321.457, 727.500 321.404 C 725.025 321.351, 723 321.737, 723 322.261 M 376 595.111 C 376 595.840, 374.794 595.996, 372.500 595.566 C 370.204 595.135, 369 595.292, 369 596.022 C 369 596.680, 368.182 596.875, 367 596.500 C 365.802 596.120, 365 596.320, 365 597 C 365 597.702, 364.189 597.878, 362.875 597.460 C 361.300 596.960, 360.954 597.117, 361.539 598.063 C 362.100 598.971, 361.847 599.155, 360.664 598.701 C 359.748 598.350, 359 598.546, 359 599.138 C 359 599.730, 358.325 599.955, 357.500 599.638 C 356.675 599.322, 356 599.485, 356 600 C 356 600.515, 355.251 600.650, 354.336 600.299 C 353.120 599.832, 352.895 600.021, 353.500 601 C 354.105 601.979, 353.880 602.168, 352.664 601.701 C 351.749 601.350, 351 601.525, 351 602.090 C 351 602.656, 350.550 602.840, 350 602.500 C 349.450 602.160, 349 602.385, 349 603 C 349 603.615, 348.550 603.840, 348 603.500 C 347.450 603.160, 347 603.385, 347 604 C 347 604.615, 346.597 604.869, 346.105 604.565 C 345.612 604.260, 344.941 604.712, 344.612 605.569 C 344.283 606.426, 343.608 606.876, 343.112 606.569 C 342.616 606.262, 341.941 606.712, 341.612 607.569 C 341.283 608.426, 340.608 608.876, 340.112 608.569 C 339.616 608.262, 338.941 608.712, 338.612 609.569 C 338.283 610.426, 337.608 610.876, 337.112 610.569 C 336.616 610.262, 335.927 610.748, 335.581 611.649 C 335.236 612.549, 334.692 613.026, 334.374 612.707 C 334.055 612.388, 332.679 613.336, 331.316 614.814 C 329.954 616.291, 329.133 616.825, 329.492 616 C 329.851 615.175, 328.555 616.300, 326.613 618.500 C 324.670 620.700, 322.500 622.520, 321.790 622.545 C 321.081 622.570, 320.603 623.105, 320.730 623.734 C 320.856 624.363, 318.153 627.493, 314.724 630.689 C 311.295 633.885, 309.391 635.832, 310.494 635.016 C 311.600 634.197, 311.158 635.095, 309.508 637.016 C 304.993 642.272, 304.618 642.655, 305.508 641.095 C 306.049 640.147, 305.929 639.926, 305.138 640.415 C 304.494 640.813, 304.210 641.531, 304.507 642.012 C 304.804 642.493, 303.353 644.580, 301.282 646.651 C 299.211 648.722, 298.188 650.064, 299.008 649.632 C 299.829 649.201, 299.438 649.782, 298.139 650.924 C 296.841 652.066, 296.166 653.010, 296.639 653.022 C 297.113 653.034, 296.375 653.974, 295 655.109 C 293.625 656.245, 293.175 656.876, 294 656.513 C 294.825 656.149, 294.626 656.560, 293.559 657.426 C 292.491 658.292, 292.041 659.014, 292.559 659.032 C 293.076 659.049, 292.626 659.724, 291.559 660.532 C 290.491 661.339, 290.015 662, 290.500 662 C 290.985 662, 290.509 662.708, 289.441 663.574 C 288.374 664.440, 288.175 664.857, 289 664.500 C 290.001 664.067, 289.923 664.325, 288.766 665.275 C 287.812 666.057, 287.324 666.991, 287.682 667.349 C 288.040 667.707, 287.808 668, 287.167 668 C 286.525 668, 286.053 668.337, 286.118 668.750 C 286.433 670.743, 285.899 672.056, 285 671.500 C 284.101 670.944, 283.567 672.257, 283.882 674.250 C 283.947 674.663, 283.523 675, 282.941 675 C 282.359 675, 282.160 675.450, 282.500 676 C 282.840 676.550, 282.615 677, 282 677 C 281.385 677, 281.160 677.450, 281.500 678 C 281.840 678.550, 281.656 679, 281.090 679 C 280.525 679, 280.350 679.749, 280.701 680.664 C 281.131 681.783, 280.957 682.091, 280.170 681.605 C 279.062 680.920, 278.836 681.302, 278.600 684.250 C 278.545 684.938, 277.917 685.959, 277.205 686.519 C 276.493 687.080, 275.835 688.542, 275.742 689.769 C 275.650 690.996, 275.194 692, 274.728 692 C 274.263 692, 274.160 692.450, 274.500 693 C 274.840 693.550, 274.637 694, 274.048 694 C 271.334 694, 290.125 721.222, 303.657 736.894 C 316.985 752.331, 339.124 772.969, 342.404 773.015 C 343.007 773.024, 345.244 771.111, 347.377 768.765 C 349.509 766.419, 350.680 765.400, 349.980 766.500 C 349.280 767.600, 353.569 763.550, 359.511 757.500 C 365.453 751.450, 369.681 747.400, 368.907 748.500 C 367.614 750.339, 367.640 750.390, 369.239 749.137 C 370.195 748.387, 370.763 747.425, 370.500 747 C 370.237 746.574, 373.381 743.219, 377.488 739.544 C 381.594 735.868, 384.852 732.444, 384.727 731.933 C 384.602 731.422, 386.300 729.396, 388.500 727.430 C 390.700 725.464, 391.825 724.143, 391 724.495 C 390.175 724.847, 391.525 723.252, 394 720.952 C 396.475 718.651, 397.825 717.076, 397 717.453 C 396.175 717.829, 397.075 716.742, 399 715.037 C 400.925 713.332, 402.500 711.495, 402.500 710.955 C 402.500 710.416, 403.850 708.822, 405.500 707.415 C 407.150 706.007, 407.856 705.190, 407.069 705.599 C 406.281 706.008, 406.914 704.669, 408.474 702.623 C 410.034 700.578, 412.153 698.453, 413.183 697.902 C 414.213 697.351, 414.816 696.511, 414.523 696.037 C 414.230 695.563, 415.230 694.202, 416.745 693.013 C 418.260 691.824, 418.825 691.143, 418 691.498 C 417.175 691.854, 417.850 690.938, 419.500 689.463 C 421.150 687.987, 421.825 687.089, 421 687.466 C 420.175 687.844, 420.562 687.218, 421.861 686.076 C 423.159 684.934, 423.834 683.990, 423.361 683.978 C 422.887 683.966, 423.625 683.026, 425 681.891 C 426.375 680.755, 426.825 680.125, 426 680.489 C 425.175 680.854, 425.493 680.274, 426.707 679.200 C 427.922 678.127, 428.671 677.004, 428.372 676.705 C 428.073 676.406, 428.767 675.660, 429.914 675.046 C 431.061 674.432, 432 673.433, 432 672.825 C 432 672.218, 432.788 671.075, 433.750 670.286 C 434.883 669.357, 434.971 669.085, 434 669.513 C 433.175 669.876, 433.625 669.195, 435 668 C 436.375 666.805, 436.825 666.130, 436 666.500 C 435.175 666.870, 435.625 666.195, 437 665 C 438.375 663.805, 438.825 663.130, 438 663.500 C 437.175 663.870, 437.625 663.195, 439 662 C 440.375 660.805, 440.825 660.124, 440 660.487 C 439.175 660.851, 439.374 660.440, 440.441 659.574 C 441.509 658.708, 441.959 657.986, 441.441 657.968 C 440.924 657.951, 441.374 657.276, 442.441 656.468 C 443.509 655.661, 443.985 655, 443.500 655 C 443.015 655, 443.491 654.292, 444.559 653.426 C 445.626 652.560, 445.825 652.143, 445 652.500 C 444.175 652.857, 444.374 652.440, 445.441 651.574 C 446.509 650.708, 446.959 649.986, 446.441 649.970 C 445.924 649.953, 446.297 649.475, 447.271 648.908 C 448.245 648.341, 448.810 647.502, 448.527 647.043 C 448.243 646.585, 448.712 645.941, 449.569 645.612 C 450.426 645.283, 450.847 644.561, 450.504 644.007 C 450.162 643.453, 450.319 643, 450.852 643 C 452.889 643, 451.225 639.972, 446.527 635.129 C 443.843 632.363, 441.266 630.336, 440.799 630.624 C 440.332 630.913, 440.074 630.730, 440.225 630.218 C 440.376 629.707, 436.459 625.286, 431.521 620.394 C 426.582 615.502, 423.207 612.432, 424.021 613.572 C 424.834 614.711, 423.737 613.811, 421.583 611.572 C 419.428 609.332, 418.015 608.175, 418.442 609 C 418.870 609.825, 418.013 609.150, 416.537 607.500 C 415.062 605.850, 414.152 605.175, 414.514 606 C 414.877 606.825, 414.195 606.375, 413 605 C 411.805 603.625, 411.124 603.175, 411.487 604 C 412.007 605.179, 411.865 605.158, 410.824 603.901 C 409.493 602.293, 408.894 602, 406.941 602 C 406.359 602, 406.157 601.555, 406.493 601.011 C 406.856 600.424, 406.407 600.290, 405.388 600.681 C 404.123 601.167, 403.890 600.987, 404.500 600 C 405.105 599.021, 404.880 598.832, 403.664 599.299 C 402.749 599.650, 402 599.475, 402 598.910 C 402 598.344, 401.550 598.160, 401 598.500 C 400.450 598.840, 400 598.611, 400 597.992 C 400 597.298, 399.183 597.124, 397.875 597.540 C 396.407 598.006, 395.969 597.860, 396.459 597.067 C 396.956 596.262, 396.396 596.113, 394.584 596.568 C 392.996 596.967, 392 596.799, 392 596.133 C 392 595.463, 390.857 595.279, 389 595.650 C 387.089 596.032, 386 595.842, 386 595.125 C 386 594.442, 384.037 594, 381 594 C 378 594, 376 594.444, 376 595.111"/>
  <path fill="#E82400" d="M 778.500 194.414 C 758.041 199.138, 741.310 209.440, 722.981 228.596 C 714.093 237.886, 705 249.135, 705 250.841 C 705 251.387, 704.606 251.983, 704.125 252.167 C 702.283 252.868, 691.495 271.731, 662.470 325 C 641.794 362.946, 635.079 374.803, 615.750 407.500 C 608.596 419.600, 600.364 433.550, 597.456 438.500 C 586.166 457.717, 574.363 479.696, 559.867 508.500 C 542.659 542.694, 536.797 552.272, 527.211 561.858 C 514.222 574.847, 503.565 577.485, 490.295 570.996 C 484.642 568.232, 480.307 564.542, 464.500 549.037 C 438.876 523.905, 431.686 518.757, 414.290 513.087 C 380.681 502.133, 344.832 509.806, 305.002 536.481 C 244.017 577.322, 199.743 639.455, 185.633 704 C 181.124 724.629, 180.497 731.231, 180.556 757.500 C 180.618 784.700, 182.326 796.651, 188.685 814.354 C 210.841 876.041, 270.076 896.155, 334 863.697 C 392.061 834.215, 455.394 771.979, 506.839 693.848 C 513.253 684.108, 518.725 676.119, 519 676.095 C 519.275 676.071, 521.001 678.265, 522.836 680.971 C 538.385 703.897, 568.672 718.952, 594.393 716.542 C 633.324 712.894, 670.273 670.881, 674.506 625.452 C 677.224 596.277, 662.257 578.924, 643.832 589.887 C 623.440 602.020, 612.689 602.921, 602.083 593.385 C 591.626 583.983, 588.644 566.097, 593.601 542.517 C 606.075 483.177, 666.800 367.222, 702.910 333.789 C 728.934 309.695, 750.864 321.165, 754.953 361.009 C 756.846 379.460, 756.226 401.120, 752.462 448 C 742.244 575.246, 741.717 613.953, 749.617 657 C 765.227 742.059, 806.006 791.885, 860.090 791.983 C 891.313 792.039, 915.373 774.396, 924.982 744.398 C 931.333 724.571, 931.742 696.326, 925.949 677.571 C 922.246 665.580, 915.922 663.507, 905.388 670.829 C 897.624 676.225, 895.328 676.694, 890.975 673.768 C 880.200 666.527, 871.557 639.635, 841.393 519.500 C 833.935 489.800, 825.173 455.825, 821.922 444 C 818.670 432.175, 812.840 411.025, 808.966 397 C 793.248 340.095, 792.305 316.762, 804.935 297.222 C 810.139 289.171, 815.921 284.760, 827.248 280.202 C 845.662 272.791, 852 264.696, 852 248.584 C 852 225.710, 835.814 204.039, 812.723 195.998 C 804.706 193.207, 787.230 192.398, 778.500 194.414 M 368.500 595.593 C 319.961 606.433, 269.886 674.189, 260.410 741.849 C 252.880 795.618, 278.390 814.561, 322 787.583 C 347.782 771.634, 370.897 749.468, 408.120 705 C 416.370 695.144, 436.311 667.392, 444.671 654.133 L 452.841 641.173 436.171 624.790 C 418.284 607.211, 409.550 600.838, 398.107 597.017 C 389.602 594.177, 377.458 593.593, 368.500 595.593"/>
</svg>